<svg width="100" height="111.5" xmlns="http://www.w3.org/2000/svg">

 <g>
  <title>background</title>
  <rect fill="none" id="canvas_background" height="402" width="582" y="-1" x="-1"/>
 </g>
 <g>
  <title>Layer 1</title>
  <path fill="#e8e8e8" id="svg_1" d="m79.514,29.335384c-10.396004,0 -21.791,6.974995 -29.514,17.554302c-7.724998,-10.579308 -19.118999,-17.554302 -29.514,-17.554302c-9.904,0 -20.486,6.959339 -20.486,26.493423c0,19.534084 10.582,26.492222 20.486,26.49342l0,0c10.396999,0 21.789001,-6.973793 29.514,-17.55069c7.723,10.576897 19.116997,17.55069 29.512001,17.55069c9.905998,0 20.487999,-6.959335 20.487999,-26.49342c0,-19.534084 -10.582001,-26.493423 -20.486,-26.493423zm-59.028,42.390675c-7.56,0 -11.396,-5.348053 -11.396,-15.897251c0,-10.545589 3.835999,-15.896057 11.396,-15.896057c8.361,0 18.07,6.53545 24.030998,15.896057c-5.959999,9.360607 -15.666998,15.897251 -24.030998,15.897251zm59.026001,0c-8.361,0 -18.07,-6.536644 -24.028999,-15.897251c5.959,-9.360607 15.669998,-15.896057 24.030998,-15.896057c7.561996,0 11.396004,5.349266 11.396004,15.896057c-0.002007,10.549198 -3.836006,15.897251 -11.398003,15.897251z"/>
 </g>
</svg>